<svg width="496" height="172" viewBox="0 0 496 172" fill="none" xmlns="http://www.w3.org/2000/svg">
<rect x="1.5" y="1.5" width="493.009" height="169" rx="26.5" stroke="white" stroke-width="3"/>
<path d="M107.614 71.5264C107.079 71.9359 97.6443 77.1867 97.6443 88.8619C97.6443 102.366 109.65 107.144 110.009 107.262C109.954 107.553 108.102 113.805 103.679 120.175C99.7359 125.781 95.6173 131.377 89.352 131.377C83.0866 131.377 81.4742 127.783 74.2414 127.783C67.1929 127.783 64.6867 131.495 58.9558 131.495C53.2248 131.495 49.226 126.308 44.6284 119.938C39.3028 112.458 35 100.838 35 89.8083C35 72.1179 46.6462 62.7358 58.1081 62.7358C64.1984 62.7358 69.2752 66.6852 73.0989 66.6852C76.7383 66.6852 82.414 62.4992 89.3428 62.4992C91.9687 62.4992 101.404 62.7358 107.614 71.5264ZM86.0534 55.0099C88.9189 51.652 90.9459 46.9928 90.9459 42.3336C90.9459 41.6875 90.8907 41.0323 90.7709 40.5045C86.1087 40.6774 80.562 43.5712 77.2174 47.4023C74.5915 50.3507 72.1407 55.0099 72.1407 59.7328C72.1407 60.4426 72.2604 61.1524 72.3157 61.3799C72.6106 61.4345 73.0897 61.4982 73.5688 61.4982C77.7518 61.4982 83.0129 58.7318 86.0534 55.0099Z" fill="white"/>
<path d="M138.709 59C138.467 59 138.262 58.9154 138.092 58.7461C137.923 58.5768 137.838 58.3713 137.838 58.1295V34.517C137.838 34.251 137.923 34.0333 138.092 33.8641C138.262 33.6948 138.467 33.6102 138.709 33.6102H147.559C150.001 33.6102 152.008 33.985 153.58 34.7346C155.176 35.4842 156.373 36.5965 157.171 38.0715C157.993 39.5466 158.416 41.348 158.44 43.4759C158.489 44.5399 158.513 45.4829 158.513 46.3051C158.513 47.1272 158.489 48.0582 158.44 49.098C158.392 51.3468 157.981 53.2087 157.207 54.6837C156.433 56.1346 155.261 57.2227 153.689 57.9481C152.141 58.6494 150.158 59 147.74 59H138.709ZM142.88 54.8288H147.559C148.913 54.8288 150.013 54.6354 150.86 54.2485C151.706 53.8616 152.323 53.245 152.71 52.3986C153.121 51.5281 153.338 50.3916 153.362 48.9892C153.387 48.2637 153.399 47.635 153.399 47.1031C153.423 46.5469 153.423 46.0028 153.399 45.4709C153.399 44.9147 153.387 44.286 153.362 43.5848C153.314 41.6019 152.818 40.139 151.875 39.1959C150.932 38.2529 149.433 37.7814 147.378 37.7814H142.88V54.8288ZM171.249 59.3627C169.314 59.3627 167.682 59.0242 166.352 58.3471C165.046 57.6701 164.043 56.7149 163.342 55.4817C162.664 54.2485 162.278 52.8097 162.181 51.1654C162.157 50.7302 162.145 50.1982 162.145 49.5695C162.145 48.9408 162.157 48.4088 162.181 47.9736C162.278 46.3051 162.677 44.8663 163.378 43.6573C164.103 42.4241 165.119 41.4689 166.425 40.7919C167.755 40.1148 169.363 39.7763 171.249 39.7763C173.135 39.7763 174.731 40.1148 176.036 40.7919C177.366 41.4689 178.382 42.4241 179.083 43.6573C179.809 44.8663 180.22 46.3051 180.316 47.9736C180.341 48.4088 180.353 48.9408 180.353 49.5695C180.353 50.1982 180.341 50.7302 180.316 51.1654C180.22 52.8097 179.821 54.2485 179.119 55.4817C178.442 56.7149 177.439 57.6701 176.109 58.3471C174.803 59.0242 173.183 59.3627 171.249 59.3627ZM171.249 55.7719C172.53 55.7719 173.522 55.3729 174.223 54.5749C174.924 53.7528 175.311 52.5558 175.384 50.9841C175.408 50.6214 175.42 50.1498 175.42 49.5695C175.42 48.9892 175.408 48.5176 175.384 48.1549C175.311 46.6073 174.924 45.4225 174.223 44.6003C173.522 43.7782 172.53 43.3671 171.249 43.3671C169.967 43.3671 168.976 43.7782 168.274 44.6003C167.573 45.4225 167.186 46.6073 167.114 48.1549C167.09 48.5176 167.077 48.9892 167.077 49.5695C167.077 50.1498 167.09 50.6214 167.114 50.9841C167.186 52.5558 167.573 53.7528 168.274 54.5749C168.976 55.3729 169.967 55.7719 171.249 55.7719ZM188.991 59C188.652 59 188.398 58.9154 188.229 58.7461C188.06 58.5768 187.915 58.3592 187.794 58.0932L182.607 41.2634C182.583 41.1425 182.571 41.0337 182.571 40.937C182.571 40.7193 182.643 40.538 182.788 40.3929C182.958 40.2236 183.139 40.139 183.332 40.139H186.016C186.307 40.139 186.536 40.2236 186.706 40.3929C186.875 40.538 186.972 40.6831 186.996 40.8281L190.55 52.8339L194.323 40.937C194.371 40.7677 194.48 40.5984 194.649 40.4292C194.818 40.2357 195.072 40.139 195.411 40.139H197.224C197.563 40.139 197.817 40.2357 197.986 40.4292C198.155 40.5984 198.264 40.7677 198.312 40.937L202.085 52.8339L205.639 40.8281C205.663 40.6831 205.748 40.538 205.893 40.3929C206.062 40.2236 206.292 40.139 206.582 40.139H209.266C209.484 40.139 209.665 40.2236 209.81 40.3929C209.98 40.538 210.064 40.7193 210.064 40.937C210.064 41.0337 210.04 41.1425 209.992 41.2634L204.805 58.0932C204.732 58.3592 204.599 58.5768 204.406 58.7461C204.237 58.9154 203.983 59 203.644 59H201.287C200.948 59 200.682 58.9154 200.489 58.7461C200.295 58.5768 200.162 58.3592 200.09 58.0932L196.317 46.6315L192.545 58.0932C192.448 58.3592 192.303 58.5768 192.11 58.7461C191.941 58.9154 191.675 59 191.312 59H188.991ZM214.464 59C214.223 59 214.017 58.9154 213.848 58.7461C213.678 58.5768 213.594 58.3713 213.594 58.1295V41.0095C213.594 40.7677 213.678 40.5622 213.848 40.3929C214.017 40.2236 214.223 40.139 214.464 40.139H217.439C217.68 40.139 217.886 40.2236 218.055 40.3929C218.224 40.5622 218.309 40.7677 218.309 41.0095V42.4966C218.938 41.7228 219.736 41.082 220.703 40.5742C221.694 40.0423 222.916 39.7763 224.366 39.7763C225.841 39.7763 227.123 40.1148 228.211 40.7919C229.299 41.4448 230.133 42.3757 230.714 43.5848C231.318 44.7938 231.621 46.2446 231.621 47.9373V58.1295C231.621 58.3713 231.536 58.5768 231.367 58.7461C231.197 58.9154 230.992 59 230.75 59H227.558C227.316 59 227.111 58.9154 226.942 58.7461C226.772 58.5768 226.688 58.3713 226.688 58.1295V48.1549C226.688 46.7524 226.337 45.6522 225.636 44.8542C224.959 44.0563 223.967 43.6573 222.662 43.6573C221.404 43.6573 220.401 44.0563 219.651 44.8542C218.902 45.6522 218.527 46.7524 218.527 48.1549V58.1295C218.527 58.3713 218.442 58.5768 218.273 58.7461C218.104 58.9154 217.898 59 217.656 59H214.464ZM237.135 59C236.893 59 236.687 58.9154 236.518 58.7461C236.349 58.5768 236.264 58.3713 236.264 58.1295V34.118C236.264 33.8762 236.349 33.6706 236.518 33.5014C236.687 33.3321 236.893 33.2475 237.135 33.2475H240.145C240.387 33.2475 240.593 33.3321 240.762 33.5014C240.931 33.6706 241.016 33.8762 241.016 34.118V58.1295C241.016 58.3713 240.931 58.5768 240.762 58.7461C240.593 58.9154 240.387 59 240.145 59H237.135ZM254.169 59.3627C252.235 59.3627 250.603 59.0242 249.273 58.3471C247.967 57.6701 246.963 56.7149 246.262 55.4817C245.585 54.2485 245.198 52.8097 245.102 51.1654C245.077 50.7302 245.065 50.1982 245.065 49.5695C245.065 48.9408 245.077 48.4088 245.102 47.9736C245.198 46.3051 245.597 44.8663 246.299 43.6573C247.024 42.4241 248.04 41.4689 249.345 40.7919C250.675 40.1148 252.283 39.7763 254.169 39.7763C256.055 39.7763 257.651 40.1148 258.957 40.7919C260.287 41.4689 261.303 42.4241 262.004 43.6573C262.729 44.8663 263.14 46.3051 263.237 47.9736C263.261 48.4088 263.273 48.9408 263.273 49.5695C263.273 50.1982 263.261 50.7302 263.237 51.1654C263.14 52.8097 262.741 54.2485 262.04 55.4817C261.363 56.7149 260.36 57.6701 259.03 58.3471C257.724 59.0242 256.104 59.3627 254.169 59.3627ZM254.169 55.7719C255.451 55.7719 256.442 55.3729 257.144 54.5749C257.845 53.7528 258.232 52.5558 258.304 50.9841C258.328 50.6214 258.341 50.1498 258.341 49.5695C258.341 48.9892 258.328 48.5176 258.304 48.1549C258.232 46.6073 257.845 45.4225 257.144 44.6003C256.442 43.7782 255.451 43.3671 254.169 43.3671C252.888 43.3671 251.896 43.7782 251.195 44.6003C250.494 45.4225 250.107 46.6073 250.034 48.1549C250.01 48.5176 249.998 48.9892 249.998 49.5695C249.998 50.1498 250.01 50.6214 250.034 50.9841C250.107 52.5558 250.494 53.7528 251.195 54.5749C251.896 55.3729 252.888 55.7719 254.169 55.7719ZM272.769 59.3627C271.512 59.3627 270.375 59.1209 269.36 58.6373C268.344 58.1295 267.534 57.4645 266.929 56.6424C266.349 55.796 266.059 54.853 266.059 53.8132C266.059 52.1206 266.736 50.7785 268.09 49.7871C269.468 48.7715 271.282 48.0945 273.531 47.7559L278.5 47.0305V46.2688C278.5 45.2532 278.246 44.4674 277.738 43.9112C277.23 43.355 276.36 43.077 275.127 43.077C274.256 43.077 273.543 43.2583 272.987 43.621C272.455 43.9596 272.056 44.419 271.79 44.9993C271.596 45.3137 271.318 45.4709 270.956 45.4709H268.09C267.824 45.4709 267.619 45.3983 267.474 45.2532C267.353 45.1081 267.292 44.9147 267.292 44.6729C267.316 44.286 267.474 43.8145 267.764 43.2583C268.054 42.7022 268.513 42.1702 269.142 41.6624C269.771 41.1304 270.581 40.6831 271.572 40.3203C272.564 39.9576 273.761 39.7763 275.163 39.7763C276.686 39.7763 277.968 39.9697 279.008 40.3566C280.072 40.7193 280.918 41.215 281.547 41.8437C282.175 42.4724 282.635 43.2099 282.925 44.0563C283.215 44.9026 283.36 45.7973 283.36 46.7403V58.1295C283.36 58.3713 283.276 58.5768 283.106 58.7461C282.937 58.9154 282.732 59 282.49 59H279.552C279.286 59 279.068 58.9154 278.899 58.7461C278.754 58.5768 278.681 58.3713 278.681 58.1295V56.7149C278.367 57.1744 277.944 57.6096 277.412 58.0207C276.88 58.4076 276.227 58.734 275.453 59C274.704 59.2418 273.809 59.3627 272.769 59.3627ZM274.002 55.917C274.849 55.917 275.61 55.7356 276.287 55.3729C276.989 55.0102 277.533 54.454 277.92 53.7044C278.331 52.9306 278.536 51.9634 278.536 50.8027V50.041L274.909 50.6214C273.482 50.839 272.418 51.1896 271.717 51.6732C271.016 52.1568 270.665 52.7493 270.665 53.4505C270.665 53.9825 270.823 54.4419 271.137 54.8288C271.475 55.1915 271.899 55.4696 272.406 55.6631C272.914 55.8323 273.446 55.917 274.002 55.917ZM295.014 59.3627C293.756 59.3627 292.644 59.1572 291.677 58.7461C290.734 58.3108 289.948 57.7063 289.319 56.9325C288.691 56.1588 288.207 55.252 287.868 54.2122C287.53 53.1483 287.336 51.9876 287.288 50.7302C287.264 50.2949 287.252 49.908 287.252 49.5695C287.252 49.2068 287.264 48.8078 287.288 48.3725C287.336 47.1635 287.518 46.0391 287.832 44.9993C288.171 43.9596 288.654 43.0528 289.283 42.279C289.936 41.481 290.734 40.8644 291.677 40.4292C292.644 39.9939 293.756 39.7763 295.014 39.7763C296.32 39.7763 297.42 40.006 298.314 40.4654C299.233 40.9007 299.995 41.4689 300.6 42.1702V34.118C300.6 33.8762 300.672 33.6706 300.817 33.5014C300.986 33.3321 301.204 33.2475 301.47 33.2475H304.553C304.795 33.2475 305 33.3321 305.17 33.5014C305.339 33.6706 305.424 33.8762 305.424 34.118V58.1295C305.424 58.3713 305.339 58.5768 305.17 58.7461C305 58.9154 304.795 59 304.553 59H301.688C301.422 59 301.204 58.9154 301.035 58.7461C300.89 58.5768 300.817 58.3713 300.817 58.1295V56.7875C300.213 57.5371 299.439 58.1537 298.496 58.6373C297.577 59.1209 296.416 59.3627 295.014 59.3627ZM296.356 55.4817C297.371 55.4817 298.181 55.252 298.786 54.7925C299.391 54.3331 299.838 53.7528 300.128 53.0515C300.418 52.3261 300.575 51.5886 300.6 50.839C300.624 50.4037 300.636 49.9443 300.636 49.4607C300.636 48.9529 300.624 48.4814 300.6 48.0461C300.575 47.3207 300.406 46.6315 300.092 45.9786C299.777 45.3016 299.318 44.7454 298.713 44.3102C298.109 43.8749 297.323 43.6573 296.356 43.6573C295.34 43.6573 294.53 43.887 293.926 44.3464C293.345 44.7817 292.922 45.362 292.656 46.0875C292.39 46.8129 292.233 47.6109 292.185 48.4814C292.16 49.2068 292.16 49.9322 292.185 50.6576C292.233 51.5281 292.39 52.3261 292.656 53.0515C292.922 53.777 293.345 54.3694 293.926 54.8288C294.53 55.2641 295.34 55.4817 296.356 55.4817ZM319.417 59C319.175 59 318.97 58.9154 318.8 58.7461C318.631 58.5768 318.546 58.3713 318.546 58.1295V41.0095C318.546 40.7677 318.631 40.5622 318.8 40.3929C318.97 40.2236 319.175 40.139 319.417 40.139H322.427C322.693 40.139 322.899 40.2236 323.044 40.3929C323.213 40.5622 323.298 40.7677 323.298 41.0095V58.1295C323.298 58.3713 323.213 58.5768 323.044 58.7461C322.899 58.9154 322.693 59 322.427 59H319.417ZM319.272 37.0197C319.006 37.0197 318.788 36.9471 318.619 36.802C318.474 36.6328 318.401 36.4151 318.401 36.1492V33.5376C318.401 33.2958 318.474 33.0903 318.619 32.921C318.788 32.7518 319.006 32.6671 319.272 32.6671H322.573C322.839 32.6671 323.056 32.7518 323.225 32.921C323.395 33.0903 323.479 33.2958 323.479 33.5376V36.1492C323.479 36.4151 323.395 36.6328 323.225 36.802C323.056 36.9471 322.839 37.0197 322.573 37.0197H319.272ZM328.981 59C328.739 59 328.533 58.9154 328.364 58.7461C328.195 58.5768 328.11 58.3713 328.11 58.1295V41.0095C328.11 40.7677 328.195 40.5622 328.364 40.3929C328.533 40.2236 328.739 40.139 328.981 40.139H331.955C332.197 40.139 332.402 40.2236 332.571 40.3929C332.741 40.5622 332.825 40.7677 332.825 41.0095V42.4966C333.454 41.7228 334.252 41.082 335.219 40.5742C336.211 40.0423 337.432 39.7763 338.883 39.7763C340.358 39.7763 341.639 40.1148 342.727 40.7919C343.816 41.4448 344.65 42.3757 345.23 43.5848C345.835 44.7938 346.137 46.2446 346.137 47.9373V58.1295C346.137 58.3713 346.052 58.5768 345.883 58.7461C345.714 58.9154 345.508 59 345.266 59H342.075C341.833 59 341.627 58.9154 341.458 58.7461C341.289 58.5768 341.204 58.3713 341.204 58.1295V48.1549C341.204 46.7524 340.853 45.6522 340.152 44.8542C339.475 44.0563 338.484 43.6573 337.178 43.6573C335.921 43.6573 334.917 44.0563 334.167 44.8542C333.418 45.6522 333.043 46.7524 333.043 48.1549V58.1295C333.043 58.3713 332.958 58.5768 332.789 58.7461C332.62 58.9154 332.414 59 332.173 59H328.981ZM366.033 59.3627C364.776 59.3627 363.663 59.1572 362.696 58.7461C361.753 58.3108 360.967 57.7063 360.338 56.9325C359.71 56.1588 359.226 55.252 358.888 54.2122C358.549 53.1483 358.356 51.9876 358.307 50.7302C358.283 50.2949 358.271 49.908 358.271 49.5695C358.271 49.2068 358.283 48.8078 358.307 48.3725C358.356 47.1635 358.537 46.0391 358.851 44.9993C359.19 43.9596 359.674 43.0528 360.302 42.279C360.955 41.481 361.753 40.8644 362.696 40.4292C363.663 39.9939 364.776 39.7763 366.033 39.7763C367.339 39.7763 368.439 40.006 369.334 40.4654C370.253 40.9007 371.014 41.4689 371.619 42.1702V34.118C371.619 33.8762 371.691 33.6706 371.836 33.5014C372.006 33.3321 372.223 33.2475 372.489 33.2475H375.572C375.814 33.2475 376.02 33.3321 376.189 33.5014C376.358 33.6706 376.443 33.8762 376.443 34.118V58.1295C376.443 58.3713 376.358 58.5768 376.189 58.7461C376.02 58.9154 375.814 59 375.572 59H372.707C372.441 59 372.223 58.9154 372.054 58.7461C371.909 58.5768 371.836 58.3713 371.836 58.1295V56.7875C371.232 57.5371 370.458 58.1537 369.515 58.6373C368.596 59.1209 367.436 59.3627 366.033 59.3627ZM367.375 55.4817C368.391 55.4817 369.201 55.252 369.805 54.7925C370.41 54.3331 370.857 53.7528 371.147 53.0515C371.437 52.3261 371.595 51.5886 371.619 50.839C371.643 50.4037 371.655 49.9443 371.655 49.4607C371.655 48.9529 371.643 48.4814 371.619 48.0461C371.595 47.3207 371.425 46.6315 371.111 45.9786C370.797 45.3016 370.337 44.7454 369.733 44.3102C369.128 43.8749 368.342 43.6573 367.375 43.6573C366.359 43.6573 365.549 43.887 364.945 44.3464C364.365 44.7817 363.941 45.362 363.675 46.0875C363.409 46.8129 363.252 47.6109 363.204 48.4814C363.18 49.2068 363.18 49.9322 363.204 50.6576C363.252 51.5281 363.409 52.3261 363.675 53.0515C363.941 53.777 364.365 54.3694 364.945 54.8288C365.549 55.2641 366.359 55.4817 367.375 55.4817ZM389.402 59.3627C386.718 59.3627 384.59 58.5889 383.018 57.0414C381.446 55.4938 380.6 53.2933 380.479 50.44C380.455 50.1982 380.443 49.8959 380.443 49.5332C380.443 49.1463 380.455 48.8441 380.479 48.6264C380.576 46.8129 380.987 45.2411 381.712 43.9112C382.462 42.5812 383.49 41.5657 384.795 40.8644C386.101 40.139 387.637 39.7763 389.402 39.7763C391.361 39.7763 393.005 40.1874 394.335 41.0095C395.665 41.8075 396.668 42.9319 397.345 44.3827C398.022 45.8094 398.361 47.4658 398.361 49.3519V50.1136C398.361 50.3554 398.276 50.5609 398.107 50.7302C397.938 50.8994 397.72 50.9841 397.454 50.9841H385.412C385.412 50.9841 385.412 51.0203 385.412 51.0929C385.412 51.1654 385.412 51.2259 385.412 51.2742C385.436 52.1206 385.593 52.9064 385.884 53.6319C386.198 54.3331 386.645 54.9014 387.226 55.3366C387.83 55.7719 388.543 55.9895 389.366 55.9895C390.043 55.9895 390.611 55.8928 391.07 55.6993C391.53 55.4817 391.905 55.2399 392.195 54.9739C392.485 54.7079 392.69 54.4903 392.811 54.321C393.029 54.0308 393.198 53.8616 393.319 53.8132C393.464 53.7407 393.67 53.7044 393.936 53.7044H397.055C397.297 53.7044 397.49 53.777 397.635 53.922C397.805 54.0671 397.877 54.2485 397.853 54.4661C397.829 54.853 397.623 55.3245 397.236 55.8807C396.874 56.4368 396.342 56.9809 395.641 57.5129C394.939 58.0449 394.057 58.4922 392.993 58.8549C391.953 59.1934 390.756 59.3627 389.402 59.3627ZM385.412 47.9373H393.428V47.8285C393.428 46.8854 393.271 46.0633 392.956 45.362C392.642 44.6608 392.183 44.1046 391.578 43.6936C390.974 43.2825 390.248 43.077 389.402 43.077C388.556 43.077 387.83 43.2825 387.226 43.6936C386.621 44.1046 386.162 44.6608 385.847 45.362C385.557 46.0633 385.412 46.8854 385.412 47.8285V47.9373Z" fill="white"/>
<path d="M137.7 128C137.29 128 136.905 127.846 136.547 127.539C136.239 127.231 136.085 126.847 136.085 126.386C136.085 126.181 136.137 125.95 136.239 125.694L154.766 76.1099C154.92 75.5974 155.202 75.1618 155.611 74.8031C156.073 74.3931 156.688 74.1881 157.456 74.1881H165.836C166.605 74.1881 167.194 74.3931 167.604 74.8031C168.014 75.1618 168.321 75.5974 168.526 76.1099L187.053 125.694C187.104 125.95 187.13 126.181 187.13 126.386C187.13 126.847 186.976 127.231 186.669 127.539C186.361 127.846 186.002 128 185.592 128H178.904C178.187 128 177.649 127.846 177.29 127.539C176.983 127.18 176.778 126.847 176.675 126.539L173.062 117.161H150.23L146.617 126.539C146.515 126.847 146.284 127.18 145.925 127.539C145.618 127.846 145.105 128 144.388 128H137.7ZM152.921 108.32H170.371L161.608 84.5661L152.921 108.32ZM189.925 142.606C189.413 142.606 188.977 142.427 188.618 142.068C188.259 141.709 188.08 141.274 188.08 140.761V89.8704C188.08 89.3579 188.259 88.9223 188.618 88.5635C188.977 88.2048 189.413 88.0254 189.925 88.0254H195.998C196.562 88.0254 196.997 88.2048 197.305 88.5635C197.664 88.9223 197.843 89.3579 197.843 89.8704V92.9454C199.073 91.3054 200.687 89.9473 202.686 88.871C204.685 87.7948 207.17 87.2567 210.143 87.2567C212.859 87.2567 215.217 87.6923 217.215 88.5635C219.214 89.4348 220.88 90.6904 222.212 92.3304C223.545 93.9191 224.57 95.8153 225.287 98.0191C226.005 100.223 226.415 102.657 226.517 105.322C226.568 106.193 226.594 107.09 226.594 108.013C226.594 108.935 226.568 109.858 226.517 110.78C226.466 113.343 226.082 115.726 225.364 117.929C224.647 120.082 223.596 121.978 222.212 123.618C220.88 125.207 219.214 126.463 217.215 127.385C215.217 128.307 212.859 128.769 210.143 128.769C207.375 128.769 205.018 128.282 203.071 127.308C201.123 126.283 199.534 124.951 198.304 123.311V140.761C198.304 141.274 198.125 141.709 197.766 142.068C197.459 142.427 197.023 142.606 196.459 142.606H189.925ZM207.299 120.543C209.502 120.543 211.219 120.082 212.449 119.159C213.679 118.186 214.55 116.93 215.063 115.393C215.627 113.855 215.96 112.164 216.062 110.319C216.165 108.781 216.165 107.244 216.062 105.706C215.96 103.862 215.627 102.17 215.063 100.633C214.55 99.0953 213.679 97.8653 212.449 96.9428C211.219 95.9691 209.502 95.4822 207.299 95.4822C205.197 95.4822 203.48 95.9691 202.148 96.9428C200.867 97.9166 199.919 99.1722 199.304 100.71C198.74 102.196 198.407 103.733 198.304 105.322C198.253 106.245 198.227 107.218 198.227 108.243C198.227 109.268 198.253 110.268 198.304 111.241C198.356 112.779 198.714 114.265 199.381 115.7C200.047 117.084 201.021 118.237 202.302 119.159C203.583 120.082 205.249 120.543 207.299 120.543ZM231.764 142.606C231.252 142.606 230.816 142.427 230.458 142.068C230.099 141.709 229.919 141.274 229.919 140.761V89.8704C229.919 89.3579 230.099 88.9223 230.458 88.5635C230.816 88.2048 231.252 88.0254 231.764 88.0254H237.837C238.401 88.0254 238.837 88.2048 239.144 88.5635C239.503 88.9223 239.682 89.3579 239.682 89.8704V92.9454C240.912 91.3054 242.527 89.9473 244.526 88.871C246.524 87.7948 249.01 87.2567 251.982 87.2567C254.699 87.2567 257.056 87.6923 259.055 88.5635C261.053 89.4348 262.719 90.6904 264.052 92.3304C265.384 93.9191 266.409 95.8153 267.127 98.0191C267.844 100.223 268.254 102.657 268.357 105.322C268.408 106.193 268.433 107.09 268.433 108.013C268.433 108.935 268.408 109.858 268.357 110.78C268.305 113.343 267.921 115.726 267.203 117.929C266.486 120.082 265.435 121.978 264.052 123.618C262.719 125.207 261.053 126.463 259.055 127.385C257.056 128.307 254.699 128.769 251.982 128.769C249.215 128.769 246.857 128.282 244.91 127.308C242.962 126.283 241.374 124.951 240.144 123.311V140.761C240.144 141.274 239.964 141.709 239.606 142.068C239.298 142.427 238.862 142.606 238.299 142.606H231.764ZM249.138 120.543C251.342 120.543 253.059 120.082 254.289 119.159C255.519 118.186 256.39 116.93 256.902 115.393C257.466 113.855 257.799 112.164 257.902 110.319C258.004 108.781 258.004 107.244 257.902 105.706C257.799 103.862 257.466 102.17 256.902 100.633C256.39 99.0953 255.519 97.8653 254.289 96.9428C253.059 95.9691 251.342 95.4822 249.138 95.4822C247.037 95.4822 245.32 95.9691 243.987 96.9428C242.706 97.9166 241.758 99.1722 241.143 100.71C240.579 102.196 240.246 103.733 240.144 105.322C240.092 106.245 240.067 107.218 240.067 108.243C240.067 109.268 240.092 110.268 240.144 111.241C240.195 112.779 240.554 114.265 241.22 115.7C241.886 117.084 242.86 118.237 244.141 119.159C245.422 120.082 247.088 120.543 249.138 120.543ZM303.471 128.769C298.704 128.769 294.707 128.077 291.478 126.693C288.301 125.258 285.866 123.413 284.175 121.158C282.535 118.852 281.664 116.443 281.561 113.932C281.561 113.471 281.715 113.086 282.023 112.779C282.33 112.471 282.715 112.318 283.176 112.318H290.018C290.684 112.318 291.171 112.471 291.478 112.779C291.837 113.035 292.144 113.368 292.401 113.778C292.708 114.752 293.298 115.726 294.169 116.699C295.04 117.622 296.219 118.391 297.705 119.006C299.243 119.621 301.164 119.928 303.471 119.928C307.161 119.928 309.902 119.313 311.696 118.083C313.541 116.853 314.464 115.188 314.464 113.086C314.464 111.6 313.977 110.421 313.003 109.55C312.029 108.628 310.517 107.808 308.467 107.09C306.469 106.321 303.804 105.527 300.472 104.707C296.629 103.785 293.4 102.683 290.786 101.402C288.224 100.069 286.276 98.4034 284.944 96.4047C283.663 94.406 283.022 91.8691 283.022 88.7942C283.022 85.8217 283.816 83.1823 285.405 80.8761C287.045 78.5699 289.351 76.7505 292.324 75.4181C295.348 74.0856 298.935 73.4193 303.086 73.4193C306.417 73.4193 309.364 73.8806 311.927 74.8031C314.489 75.6743 316.616 76.853 318.307 78.3393C319.999 79.7743 321.28 81.3374 322.151 83.0286C323.074 84.6686 323.56 86.2829 323.612 87.8717C323.612 88.2817 323.458 88.666 323.15 89.0248C322.894 89.3323 322.51 89.486 321.997 89.486H314.848C314.438 89.486 314.028 89.3835 313.618 89.1785C313.208 88.9735 312.875 88.5892 312.619 88.0254C312.311 86.4367 311.312 85.0786 309.621 83.9511C307.929 82.8236 305.751 82.2599 303.086 82.2599C300.319 82.2599 298.089 82.7724 296.398 83.7973C294.707 84.8223 293.861 86.4111 293.861 88.5635C293.861 89.9985 294.271 91.2029 295.091 92.1766C295.963 93.0991 297.321 93.9191 299.166 94.6366C301.062 95.3541 303.547 96.1228 306.622 96.9428C310.979 97.9166 314.54 99.0441 317.308 100.325C320.075 101.607 322.1 103.247 323.381 105.245C324.662 107.193 325.303 109.678 325.303 112.702C325.303 116.085 324.38 118.98 322.535 121.389C320.742 123.746 318.205 125.566 314.925 126.847C311.645 128.128 307.827 128.769 303.471 128.769ZM345.875 128C342.8 128 340.211 127.462 338.11 126.386C336.009 125.309 334.446 123.721 333.421 121.619C332.396 119.467 331.883 116.802 331.883 113.625V96.1741H325.81C325.298 96.1741 324.862 95.9947 324.503 95.636C324.145 95.2772 323.965 94.8416 323.965 94.3291V89.8704C323.965 89.3579 324.145 88.9223 324.503 88.5635C324.862 88.2048 325.298 88.0254 325.81 88.0254H331.883V75.2643C331.883 74.7518 332.037 74.3162 332.345 73.9574C332.703 73.5987 333.165 73.4193 333.728 73.4193H339.955C340.468 73.4193 340.903 73.5987 341.262 73.9574C341.621 74.3162 341.8 74.7518 341.8 75.2643V88.0254H351.409C351.922 88.0254 352.358 88.2048 352.716 88.5635C353.075 88.9223 353.254 89.3579 353.254 89.8704V94.3291C353.254 94.8416 353.075 95.2772 352.716 95.636C352.358 95.9947 351.922 96.1741 351.409 96.1741H341.8V112.856C341.8 114.957 342.159 116.597 342.876 117.776C343.645 118.954 344.952 119.544 346.797 119.544H352.101C352.614 119.544 353.049 119.723 353.408 120.082C353.767 120.441 353.946 120.876 353.946 121.389V126.155C353.946 126.668 353.767 127.103 353.408 127.462C353.049 127.821 352.614 128 352.101 128H345.875ZM373.066 128.769C368.966 128.769 365.506 128.051 362.688 126.616C359.92 125.181 357.793 123.157 356.307 120.543C354.872 117.929 354.052 114.88 353.847 111.395C353.796 110.473 353.77 109.345 353.77 108.013C353.77 106.68 353.796 105.553 353.847 104.63C354.052 101.094 354.898 98.0447 356.384 95.4822C357.922 92.8685 360.074 90.8441 362.841 89.4092C365.66 87.9742 369.068 87.2567 373.066 87.2567C377.063 87.2567 380.446 87.9742 383.213 89.4092C386.032 90.8441 388.184 92.8685 389.671 95.4822C391.208 98.0447 392.079 101.094 392.284 104.63C392.336 105.553 392.361 106.68 392.361 108.013C392.361 109.345 392.336 110.473 392.284 111.395C392.079 114.88 391.234 117.929 389.747 120.543C388.312 123.157 386.186 125.181 383.367 126.616C380.599 128.051 377.166 128.769 373.066 128.769ZM373.066 121.158C375.782 121.158 377.883 120.313 379.369 118.621C380.856 116.879 381.676 114.342 381.829 111.011C381.881 110.242 381.906 109.243 381.906 108.013C381.906 106.783 381.881 105.783 381.829 105.015C381.676 101.735 380.856 99.2234 379.369 97.4809C377.883 95.7385 375.782 94.8672 373.066 94.8672C370.35 94.8672 368.248 95.7385 366.762 97.4809C365.276 99.2234 364.456 101.735 364.302 105.015C364.251 105.783 364.225 106.783 364.225 108.013C364.225 109.243 364.251 110.242 364.302 111.011C364.456 114.342 365.276 116.879 366.762 118.621C368.248 120.313 370.35 121.158 373.066 121.158ZM397.342 128C396.83 128 396.394 127.821 396.036 127.462C395.677 127.103 395.497 126.668 395.497 126.155V89.9473C395.497 89.3835 395.677 88.9223 396.036 88.5635C396.394 88.2048 396.83 88.0254 397.342 88.0254H403.569C404.082 88.0254 404.517 88.2048 404.876 88.5635C405.286 88.9223 405.491 89.3835 405.491 89.9473V93.0991C406.67 91.4591 408.182 90.2035 410.027 89.3323C411.923 88.461 414.101 88.0254 416.561 88.0254H419.713C420.277 88.0254 420.712 88.2048 421.02 88.5635C421.378 88.9223 421.558 89.3579 421.558 89.8704V95.4053C421.558 95.9178 421.378 96.3535 421.02 96.7122C420.712 97.071 420.277 97.2503 419.713 97.2503H413.717C411.257 97.2503 409.335 97.9422 407.951 99.3259C406.619 100.71 405.952 102.606 405.952 105.015V126.155C405.952 126.668 405.773 127.103 405.414 127.462C405.055 127.821 404.594 128 404.03 128H397.342ZM438.866 128.769C433.178 128.769 428.668 127.129 425.337 123.849C422.005 120.569 420.212 115.905 419.955 109.858C419.904 109.345 419.879 108.705 419.879 107.936C419.879 107.116 419.904 106.475 419.955 106.014C420.16 102.17 421.032 98.8391 422.569 96.0203C424.158 93.2016 426.336 91.0491 429.103 89.5629C431.871 88.0254 435.125 87.2567 438.866 87.2567C443.018 87.2567 446.503 88.1279 449.321 89.8704C452.14 91.5616 454.267 93.9447 455.702 97.0197C457.137 100.043 457.854 103.554 457.854 107.551V109.166C457.854 109.678 457.675 110.114 457.316 110.473C456.958 110.831 456.496 111.011 455.933 111.011H430.41C430.41 111.011 430.41 111.088 430.41 111.241C430.41 111.395 430.41 111.523 430.41 111.626C430.462 113.42 430.795 115.085 431.41 116.623C432.076 118.109 433.024 119.313 434.254 120.236C435.535 121.158 437.047 121.619 438.79 121.619C440.225 121.619 441.429 121.414 442.403 121.004C443.376 120.543 444.171 120.031 444.786 119.467C445.401 118.903 445.836 118.442 446.093 118.083C446.554 117.468 446.913 117.109 447.169 117.007C447.476 116.853 447.912 116.776 448.476 116.776H455.087C455.599 116.776 456.009 116.93 456.317 117.238C456.676 117.545 456.829 117.929 456.778 118.391C456.727 119.211 456.291 120.21 455.471 121.389C454.703 122.568 453.575 123.721 452.089 124.848C450.603 125.976 448.732 126.924 446.477 127.693C444.273 128.41 441.736 128.769 438.866 128.769ZM430.41 104.553H447.399V104.323C447.399 102.324 447.066 100.582 446.4 99.0953C445.734 97.6091 444.76 96.4303 443.479 95.5591C442.198 94.6879 440.66 94.2522 438.866 94.2522C437.073 94.2522 435.535 94.6879 434.254 95.5591C432.973 96.4303 431.999 97.6091 431.333 99.0953C430.718 100.582 430.41 102.324 430.41 104.323V104.553Z" fill="white"/>
</svg>
