<svg width="1647" height="446" viewBox="0 0 1647 446" fill="none" xmlns="http://www.w3.org/2000/svg">
<path d="M261.347 267.475L254.371 286.311H71.5972L78.7477 267.475H261.347Z" fill="#19A5FF"/>
<path d="M280.88 267.475V286.311H271.463L278.439 267.475H280.88Z" fill="#19A5FF"/>
<path d="M131.94 329.388H237.977L231.001 348.223H124.964L131.94 329.388Z" fill="#19A5FF"/>
<path d="M273.381 329.388V348.223H248.093L255.243 329.388H273.381Z" fill="#19A5FF"/>
<path d="M285.066 204.69L277.916 223.7H144.149L151.299 204.69H285.066Z" fill="#19A5FF"/>
<path d="M311.401 204.69V223.7H295.007L302.158 204.69H311.401Z" fill="#19A5FF"/>
<path d="M408.893 257.884C405.928 281.254 407.497 301.659 427.728 309.333C434.704 311.949 444.122 311.6 451.447 308.46L455.633 345.434C438.367 350.84 424.763 353.456 404.009 345.608C356.049 327.296 361.804 268.173 367.559 245.85L340.701 235.56C325.528 273.057 310.355 310.728 295.356 348.224C279.66 348.224 263.79 348.224 248.093 348.05C280.707 261.546 313.32 175.042 345.933 88.5386L435.576 122.722C477.084 138.592 488.246 178.007 474.642 213.585C463.829 242.187 438.541 259.628 408.893 257.884ZM393.894 214.806C409.765 220.91 423.717 212.888 429.995 196.145C436.274 179.402 431.391 163.881 415.52 157.951L375.93 142.952L354.305 199.808L393.894 214.806Z" fill="#19A5FF"/>
<path d="M455.265 133.664C473.577 146.57 499.058 157.078 508.999 150.276C510.743 149.056 513.882 146.265 516.673 142.777C522.428 135.452 524.695 127.953 525.567 123.418C537.252 127.604 548.937 131.79 560.448 135.975C559.925 142.254 558.355 152.544 552.6 163.705C549.46 169.635 543.182 179.402 532.02 187.424C528.706 189.866 523.474 193.528 515.452 195.97C507.255 198.586 500.453 198.412 495.919 198.237C492.779 198.237 482.839 197.54 468.189 192.133C459.469 188.819 446.388 182.715 432.262 171.205C441.854 160.566 451.62 150.102 461.213 139.464L455.265 133.664Z" fill="#19A5FF"/>
<path d="M332.504 129.523C310.703 124.29 291.17 126.907 284.369 136.847C283.148 138.592 281.229 142.254 279.834 146.614C277.044 155.509 277.916 163.357 278.613 167.891C266.231 168.24 253.848 168.589 241.466 168.938C239.547 163.008 237.28 152.718 238.675 140.336C239.373 133.534 241.64 122.198 249.139 110.687C251.232 107.373 254.895 101.793 261.347 96.5604C268.149 91.154 274.428 88.8867 278.613 87.3171C281.578 86.2707 290.996 83.1314 306.692 82.957C315.936 82.957 330.585 83.6546 347.851 89.4099C342.794 102.839 337.561 116.268 332.504 129.523Z" fill="#19A5FF"/>
<path d="M436.796 111.938C460.732 111.938 480.136 93.6095 480.136 71C480.136 48.3906 460.732 30.062 436.796 30.062C412.86 30.062 393.456 48.3906 393.456 71C393.456 93.6095 412.86 111.938 436.796 111.938Z" fill="#19A5FF"/>
<path fill-rule="evenodd" clip-rule="evenodd" d="M470.858 254.87C483.06 243.424 490.609 229.799 494.084 216.611H514.465V287.852C514.465 302.81 519.536 315.994 535.254 315.994C551.226 315.994 556.297 302.81 556.297 287.599V216.611H599.903V347.938H556.297V330.698C546.916 344.896 533.987 350.727 517.507 350.727C478.971 350.727 470.858 318.782 470.858 290.387V254.87ZM629.354 216.611V347.938H672.961V276.95C672.961 261.992 678.538 248.809 694.003 248.809C709.976 248.809 714.793 264.274 714.793 276.95V347.938H758.399V274.415C758.399 245.767 750.286 213.822 712.004 213.822C695.018 213.822 682.341 219.653 672.961 233.851V216.611H629.354Z" fill="#19A5FF"/>
<path d="M823.615 282.021C823.615 301.289 835.024 316.501 853.531 316.501C870.771 316.501 883.955 304.331 883.955 283.289C883.955 261.992 871.532 248.302 853.024 248.302C834.77 248.302 823.615 263.514 823.615 282.021ZM882.94 216.611H926.547V347.938H882.94V329.938C874.574 342.867 861.644 350.727 843.137 350.727C805.361 350.727 779.755 320.557 779.755 282.021C779.755 244.246 804.347 213.822 842.883 213.822C860.123 213.822 874.828 221.935 882.94 234.105V216.611ZM1096.67 248.809C1082.47 248.809 1078.92 261.739 1078.92 276.443V347.938H1035.31V276.19C1035.31 262.753 1031 248.809 1017.57 248.809C1003.62 248.809 999.567 261.739 999.567 276.443V347.938H955.96V216.611H999.567V234.105C1006.41 221.175 1018.58 213.822 1032.78 213.822C1051.79 213.822 1063.71 222.189 1070.55 234.612C1081.96 216.358 1098.7 213.822 1111.63 213.822C1148.13 213.822 1158.27 246.02 1158.27 274.415V347.938H1114.67V276.19C1114.67 262.753 1110.36 248.809 1096.67 248.809ZM1229.83 347.938H1186.22V216.611H1229.83V347.938ZM1182.16 184.16C1182.16 171.23 1192.05 161.849 1208.28 161.849C1224.5 161.849 1234.39 171.23 1234.39 184.16C1234.39 197.09 1223.74 206.217 1208.28 206.217C1192.3 206.217 1182.16 197.09 1182.16 184.16ZM1355.84 329.938C1347.47 342.867 1334.04 350.727 1315.78 350.727C1277.75 350.727 1252.15 319.797 1252.15 282.021C1252.15 244.753 1276.74 213.822 1315.27 213.822C1332.26 213.822 1347.22 222.189 1355.59 234.105V216.611H1399.19V333.233C1399.19 386.728 1364.46 406.503 1324.91 406.503C1297.78 406.503 1276.49 399.657 1261.53 388.756L1278.01 357.318C1287.13 364.164 1302.85 371.516 1317.81 371.516C1340.88 371.516 1355.08 363.657 1355.84 329.938ZM1296.01 282.021C1296.01 301.289 1307.92 316.754 1326.18 316.754C1343.42 316.754 1356.35 304.331 1356.35 283.289C1356.35 261.992 1343.92 247.795 1325.67 247.795C1306.91 247.795 1296.01 263.767 1296.01 282.021ZM1568.55 282.275C1568.55 320.05 1535.59 350.727 1494.52 350.727C1453.7 350.727 1420.49 320.304 1420.49 282.275C1420.49 244.246 1453.7 213.822 1494.52 213.822C1535.59 213.822 1568.55 244.499 1568.55 282.275ZM1462.58 282.275C1462.58 301.543 1475.51 314.726 1494.52 314.726C1513.54 314.726 1526.47 301.543 1526.47 282.275C1526.47 263.007 1513.54 249.57 1494.52 249.57C1475.51 249.57 1462.58 263.007 1462.58 282.275Z" fill="#F00C18"/>
</svg> 