<svg width="513" height="172" viewBox="0 0 513 172" fill="none" xmlns="http://www.w3.org/2000/svg">
<rect x="1.5" y="1.5" width="509.028" height="169" rx="26.5" stroke="white" stroke-width="3"/>
<path d="M102.14 101.253C113.656 94.8161 122.462 89.9121 123.215 89.529C125.624 88.2263 128.108 84.7782 123.215 82.0963C121.634 81.2534 113.129 76.5027 102.14 70.3726L87.0107 85.851L102.14 101.253Z" fill="#FFDD33"/>
<path d="M87.0108 85.851L38.6882 135.428C39.8173 135.581 41.0968 135.274 42.6022 134.431C45.7635 132.669 79.3334 113.973 102.14 101.253L87.0108 85.851Z" fill="#FF6666"/>
<path d="M87.0108 85.851L102.14 70.3726C102.14 70.3726 45.9893 39.1861 42.6022 37.3471C41.3226 36.5808 39.8925 36.351 38.6129 36.5808L87.0108 85.851Z" fill="#7BFF7B"/>
<path d="M87.0108 85.851L38.6129 36.5808C36.6559 37.0406 35 38.803 35 42.4044C35 48.1513 35 124.777 35 129.604C35 132.899 36.2796 135.274 38.6882 135.504L87.0108 85.851Z" fill="#6ED8FF"/>
<path d="M154.764 59C154.498 59 154.28 58.9154 154.111 58.7461C153.942 58.5768 153.857 58.3713 153.857 58.1295V34.517C153.857 34.251 153.942 34.0333 154.111 33.8641C154.28 33.6948 154.498 33.6102 154.764 33.6102H157.629C157.968 33.6102 158.222 33.7069 158.391 33.9003C158.56 34.0696 158.669 34.2026 158.718 34.2993L165.718 47.357L172.791 34.2993C172.839 34.2026 172.948 34.0696 173.117 33.9003C173.286 33.7069 173.54 33.6102 173.879 33.6102H176.708C176.974 33.6102 177.192 33.6948 177.361 33.8641C177.53 34.0333 177.615 34.251 177.615 34.517V58.1295C177.615 58.3713 177.53 58.5768 177.361 58.7461C177.192 58.9154 176.974 59 176.708 59H173.661C173.395 59 173.178 58.9154 173.008 58.7461C172.863 58.5768 172.791 58.3713 172.791 58.1295V42.4241L167.713 52.1085C167.592 52.3261 167.435 52.5196 167.241 52.6888C167.048 52.8339 166.794 52.9064 166.48 52.9064H164.992C164.654 52.9064 164.388 52.8339 164.195 52.6888C164.025 52.5196 163.88 52.3261 163.759 52.1085L158.681 42.4241V58.1295C158.681 58.3713 158.597 58.5768 158.427 58.7461C158.258 58.9154 158.053 59 157.811 59H154.764ZM190.946 59.3627C188.262 59.3627 186.134 58.5889 184.562 57.0414C182.991 55.4938 182.144 53.2933 182.023 50.44C181.999 50.1982 181.987 49.8959 181.987 49.5332C181.987 49.1463 181.999 48.8441 182.023 48.6264C182.12 46.8129 182.531 45.2411 183.257 43.9112C184.006 42.5812 185.034 41.5657 186.34 40.8644C187.646 40.139 189.181 39.7763 190.946 39.7763C192.905 39.7763 194.549 40.1874 195.879 41.0095C197.209 41.8075 198.213 42.9319 198.89 44.3827C199.567 45.8094 199.905 47.4658 199.905 49.3519V50.1136C199.905 50.3554 199.821 50.5609 199.651 50.7302C199.482 50.8994 199.264 50.9841 198.998 50.9841H186.956C186.956 50.9841 186.956 51.0203 186.956 51.0929C186.956 51.1654 186.956 51.2259 186.956 51.2742C186.981 52.1206 187.138 52.9064 187.428 53.6319C187.742 54.3331 188.19 54.9014 188.77 55.3366C189.374 55.7719 190.088 55.9895 190.91 55.9895C191.587 55.9895 192.155 55.8928 192.615 55.6993C193.074 55.4817 193.449 55.2399 193.739 54.9739C194.029 54.7079 194.235 54.4903 194.356 54.321C194.573 54.0308 194.743 53.8616 194.863 53.8132C195.009 53.7407 195.214 53.7044 195.48 53.7044H198.599C198.841 53.7044 199.035 53.777 199.18 53.922C199.349 54.0671 199.422 54.2485 199.397 54.4661C199.373 54.853 199.168 55.3245 198.781 55.8807C198.418 56.4368 197.886 56.9809 197.185 57.5129C196.484 58.0449 195.601 58.4922 194.537 58.8549C193.497 59.1934 192.3 59.3627 190.946 59.3627ZM186.956 47.9373H194.972V47.8285C194.972 46.8854 194.815 46.0633 194.501 45.362C194.186 44.6608 193.727 44.1046 193.122 43.6936C192.518 43.2825 191.793 43.077 190.946 43.077C190.1 43.077 189.374 43.2825 188.77 43.6936C188.165 44.1046 187.706 44.6608 187.392 45.362C187.101 46.0633 186.956 46.8854 186.956 47.8285V47.9373ZM204.662 59C204.42 59 204.215 58.9154 204.045 58.7461C203.876 58.5768 203.792 58.3713 203.792 58.1295V34.118C203.792 33.8762 203.876 33.6706 204.045 33.5014C204.215 33.3321 204.42 33.2475 204.662 33.2475H207.673C207.914 33.2475 208.12 33.3321 208.289 33.5014C208.458 33.6706 208.543 33.8762 208.543 34.118V58.1295C208.543 58.3713 208.458 58.5768 208.289 58.7461C208.12 58.9154 207.914 59 207.673 59H204.662ZM220.355 59.3627C219.097 59.3627 217.985 59.1572 217.018 58.7461C216.075 58.3108 215.289 57.7063 214.66 56.9325C214.031 56.1588 213.548 55.252 213.209 54.2122C212.871 53.1483 212.677 51.9876 212.629 50.7302C212.605 50.2949 212.593 49.908 212.593 49.5695C212.593 49.2068 212.605 48.8078 212.629 48.3725C212.677 47.1635 212.859 46.0391 213.173 44.9993C213.512 43.9596 213.995 43.0528 214.624 42.279C215.277 41.481 216.075 40.8644 217.018 40.4292C217.985 39.9939 219.097 39.7763 220.355 39.7763C221.661 39.7763 222.761 40.006 223.655 40.4654C224.574 40.9007 225.336 41.4689 225.941 42.1702V34.118C225.941 33.8762 226.013 33.6706 226.158 33.5014C226.327 33.3321 226.545 33.2475 226.811 33.2475H229.894C230.136 33.2475 230.341 33.3321 230.511 33.5014C230.68 33.6706 230.765 33.8762 230.765 34.118V58.1295C230.765 58.3713 230.68 58.5768 230.511 58.7461C230.341 58.9154 230.136 59 229.894 59H227.029C226.763 59 226.545 58.9154 226.376 58.7461C226.231 58.5768 226.158 58.3713 226.158 58.1295V56.7875C225.554 57.5371 224.78 58.1537 223.837 58.6373C222.918 59.1209 221.757 59.3627 220.355 59.3627ZM221.697 55.4817C222.712 55.4817 223.522 55.252 224.127 54.7925C224.731 54.3331 225.179 53.7528 225.469 53.0515C225.759 52.3261 225.916 51.5886 225.941 50.839C225.965 50.4037 225.977 49.9443 225.977 49.4607C225.977 48.9529 225.965 48.4814 225.941 48.0461C225.916 47.3207 225.747 46.6315 225.433 45.9786C225.118 45.3016 224.659 44.7454 224.054 44.3102C223.45 43.8749 222.664 43.6573 221.697 43.6573C220.681 43.6573 219.871 43.887 219.267 44.3464C218.686 44.7817 218.263 45.362 217.997 46.0875C217.731 46.8129 217.574 47.6109 217.526 48.4814C217.501 49.2068 217.501 49.9322 217.526 50.6576C217.574 51.5281 217.731 52.3261 217.997 53.0515C218.263 53.777 218.686 54.3694 219.267 54.8288C219.871 55.2641 220.681 55.4817 221.697 55.4817ZM240.768 65.8915C240.526 65.8915 240.321 65.8069 240.151 65.6376C239.982 65.4684 239.898 65.2628 239.898 65.021V62.9173C239.898 62.6755 239.982 62.4699 240.151 62.3007C240.321 62.1314 240.526 62.0468 240.768 62.0468H241.711C242.461 62.0468 243.017 61.9138 243.38 61.6478C243.742 61.3818 243.984 61.007 244.105 60.5234C244.226 60.064 244.286 59.5441 244.286 58.9637V41.0095C244.286 40.7677 244.371 40.5622 244.54 40.3929C244.71 40.2236 244.915 40.139 245.157 40.139H248.312C248.554 40.139 248.76 40.2236 248.929 40.3929C249.098 40.5622 249.183 40.7677 249.183 41.0095V59.0363C249.183 60.4629 248.917 61.6841 248.385 62.6997C247.877 63.7153 247.103 64.5011 246.064 65.0573C245.048 65.6134 243.742 65.8915 242.146 65.8915H240.768ZM245.012 37.0197C244.746 37.0197 244.528 36.9471 244.359 36.802C244.19 36.6328 244.105 36.4151 244.105 36.1492V33.5376C244.105 33.2958 244.19 33.0903 244.359 32.921C244.528 32.7518 244.746 32.6671 245.012 32.6671H248.421C248.687 32.6671 248.905 32.7518 249.074 32.921C249.243 33.0903 249.328 33.2958 249.328 33.5376V36.1492C249.328 36.4151 249.243 36.6328 249.074 36.802C248.905 36.9471 248.687 37.0197 248.421 37.0197H245.012ZM262.143 59.3627C259.458 59.3627 257.331 58.5889 255.759 57.0414C254.187 55.4938 253.341 53.2933 253.22 50.44C253.196 50.1982 253.184 49.8959 253.184 49.5332C253.184 49.1463 253.196 48.8441 253.22 48.6264C253.317 46.8129 253.728 45.2411 254.453 43.9112C255.203 42.5812 256.23 41.5657 257.536 40.8644C258.842 40.139 260.377 39.7763 262.143 39.7763C264.101 39.7763 265.745 40.1874 267.075 41.0095C268.405 41.8075 269.409 42.9319 270.086 44.3827C270.763 45.8094 271.102 47.4658 271.102 49.3519V50.1136C271.102 50.3554 271.017 50.5609 270.848 50.7302C270.678 50.8994 270.461 50.9841 270.195 50.9841H258.153C258.153 50.9841 258.153 51.0203 258.153 51.0929C258.153 51.1654 258.153 51.2259 258.153 51.2742C258.177 52.1206 258.334 52.9064 258.624 53.6319C258.939 54.3331 259.386 54.9014 259.966 55.3366C260.571 55.7719 261.284 55.9895 262.106 55.9895C262.783 55.9895 263.352 55.8928 263.811 55.6993C264.27 55.4817 264.645 55.2399 264.935 54.9739C265.226 54.7079 265.431 54.4903 265.552 54.321C265.77 54.0308 265.939 53.8616 266.06 53.8132C266.205 53.7407 266.41 53.7044 266.676 53.7044H269.796C270.038 53.7044 270.231 53.777 270.376 53.922C270.545 54.0671 270.618 54.2485 270.594 54.4661C270.57 54.853 270.364 55.3245 269.977 55.8807C269.614 56.4368 269.082 56.9809 268.381 57.5129C267.68 58.0449 266.797 58.4922 265.733 58.8549C264.694 59.1934 263.497 59.3627 262.143 59.3627ZM258.153 47.9373H266.169V47.8285C266.169 46.8854 266.011 46.0633 265.697 45.362C265.383 44.6608 264.923 44.1046 264.319 43.6936C263.714 43.2825 262.989 43.077 262.143 43.077C261.296 43.077 260.571 43.2825 259.966 43.6936C259.362 44.1046 258.902 44.6608 258.588 45.362C258.298 46.0633 258.153 46.8854 258.153 47.8285V47.9373ZM288.717 59.3627C287.46 59.3627 286.323 59.1209 285.308 58.6373C284.292 58.1295 283.482 57.4645 282.877 56.6424C282.297 55.796 282.007 54.853 282.007 53.8132C282.007 52.1206 282.684 50.7785 284.038 49.7871C285.416 48.7715 287.23 48.0945 289.479 47.7559L294.448 47.0305V46.2688C294.448 45.2532 294.194 44.4674 293.686 43.9112C293.178 43.355 292.308 43.077 291.075 43.077C290.204 43.077 289.491 43.2583 288.935 43.621C288.403 43.9596 288.004 44.419 287.738 44.9993C287.544 45.3137 287.266 45.4709 286.904 45.4709H284.038C283.772 45.4709 283.567 45.3983 283.422 45.2532C283.301 45.1081 283.24 44.9147 283.24 44.6729C283.264 44.286 283.422 43.8145 283.712 43.2583C284.002 42.7022 284.461 42.1702 285.09 41.6624C285.719 41.1304 286.529 40.6831 287.52 40.3203C288.512 39.9576 289.709 39.7763 291.111 39.7763C292.634 39.7763 293.916 39.9697 294.956 40.3566C296.02 40.7193 296.866 41.215 297.495 41.8437C298.123 42.4724 298.583 43.2099 298.873 44.0563C299.163 44.9026 299.308 45.7973 299.308 46.7403V58.1295C299.308 58.3713 299.224 58.5768 299.054 58.7461C298.885 58.9154 298.68 59 298.438 59H295.5C295.234 59 295.016 58.9154 294.847 58.7461C294.702 58.5768 294.629 58.3713 294.629 58.1295V56.7149C294.315 57.1744 293.892 57.6096 293.36 58.0207C292.828 58.4076 292.175 58.734 291.401 59C290.652 59.2418 289.757 59.3627 288.717 59.3627ZM289.95 55.917C290.797 55.917 291.558 55.7356 292.235 55.3729C292.937 55.0102 293.481 54.454 293.868 53.7044C294.279 52.9306 294.484 51.9634 294.484 50.8027V50.041L290.857 50.6214C289.43 50.839 288.367 51.1896 287.665 51.6732C286.964 52.1568 286.613 52.7493 286.613 53.4505C286.613 53.9825 286.771 54.4419 287.085 54.8288C287.423 55.1915 287.847 55.4696 288.354 55.6631C288.862 55.8323 289.394 55.917 289.95 55.917ZM309.438 59.3627C308.181 59.3627 307.045 59.1209 306.029 58.6373C305.013 58.1295 304.203 57.4645 303.599 56.6424C303.018 55.796 302.728 54.853 302.728 53.8132C302.728 52.1206 303.405 50.7785 304.759 49.7871C306.138 48.7715 307.951 48.0945 310.2 47.7559L315.169 47.0305V46.2688C315.169 45.2532 314.915 44.4674 314.408 43.9112C313.9 43.355 313.029 43.077 311.796 43.077C310.926 43.077 310.212 43.2583 309.656 43.621C309.124 43.9596 308.725 44.419 308.459 44.9993C308.266 45.3137 307.988 45.4709 307.625 45.4709H304.759C304.493 45.4709 304.288 45.3983 304.143 45.2532C304.022 45.1081 303.961 44.9147 303.961 44.6729C303.986 44.286 304.143 43.8145 304.433 43.2583C304.723 42.7022 305.183 42.1702 305.811 41.6624C306.44 41.1304 307.25 40.6831 308.241 40.3203C309.233 39.9576 310.43 39.7763 311.832 39.7763C313.356 39.7763 314.637 39.9697 315.677 40.3566C316.741 40.7193 317.587 41.215 318.216 41.8437C318.845 42.4724 319.304 43.2099 319.594 44.0563C319.885 44.9026 320.03 45.7973 320.03 46.7403V58.1295C320.03 58.3713 319.945 58.5768 319.776 58.7461C319.606 58.9154 319.401 59 319.159 59H316.221C315.955 59 315.738 58.9154 315.568 58.7461C315.423 58.5768 315.351 58.3713 315.351 58.1295V56.7149C315.036 57.1744 314.613 57.6096 314.081 58.0207C313.549 58.4076 312.896 58.734 312.123 59C311.373 59.2418 310.478 59.3627 309.438 59.3627ZM310.672 55.917C311.518 55.917 312.28 55.7356 312.957 55.3729C313.658 55.0102 314.202 54.454 314.589 53.7044C315 52.9306 315.206 51.9634 315.206 50.8027V50.041L311.578 50.6214C310.152 50.839 309.088 51.1896 308.387 51.6732C307.685 52.1568 307.335 52.7493 307.335 53.4505C307.335 53.9825 307.492 54.4419 307.806 54.8288C308.145 55.1915 308.568 55.4696 309.076 55.6631C309.584 55.8323 310.116 55.917 310.672 55.917ZM325.553 59C325.312 59 325.106 58.9154 324.937 58.7461C324.767 58.5768 324.683 58.3713 324.683 58.1295V41.0095C324.683 40.7677 324.767 40.5622 324.937 40.3929C325.106 40.2236 325.312 40.139 325.553 40.139H328.528C328.769 40.139 328.975 40.2236 329.144 40.3929C329.313 40.5622 329.398 40.7677 329.398 41.0095V42.4966C330.027 41.7228 330.825 41.082 331.792 40.5742C332.783 40.0423 334.005 39.7763 335.455 39.7763C336.93 39.7763 338.212 40.1148 339.3 40.7919C340.388 41.4448 341.222 42.3757 341.803 43.5848C342.407 44.7938 342.71 46.2446 342.71 47.9373V58.1295C342.71 58.3713 342.625 58.5768 342.456 58.7461C342.286 58.9154 342.081 59 341.839 59H338.647C338.405 59 338.2 58.9154 338.031 58.7461C337.861 58.5768 337.777 58.3713 337.777 58.1295V48.1549C337.777 46.7524 337.426 45.6522 336.725 44.8542C336.048 44.0563 335.056 43.6573 333.751 43.6573C332.493 43.6573 331.49 44.0563 330.74 44.8542C329.991 45.6522 329.616 46.7524 329.616 48.1549V58.1295C329.616 58.3713 329.531 58.5768 329.362 58.7461C329.193 58.9154 328.987 59 328.745 59H325.553ZM361.323 59C360.936 59 360.646 58.9154 360.452 58.7461C360.283 58.5527 360.138 58.335 360.017 58.0932L353.234 41.2634C353.186 41.1425 353.162 41.0337 353.162 40.937C353.162 40.7193 353.234 40.538 353.38 40.3929C353.549 40.2236 353.742 40.139 353.96 40.139H356.898C357.188 40.139 357.406 40.2236 357.551 40.3929C357.696 40.538 357.793 40.6831 357.841 40.8281L362.665 53.5593L367.489 40.8281C367.537 40.6831 367.634 40.538 367.779 40.3929C367.924 40.2236 368.142 40.139 368.432 40.139H371.406C371.6 40.139 371.769 40.2236 371.914 40.3929C372.083 40.538 372.168 40.7193 372.168 40.937C372.168 41.0337 372.156 41.1425 372.132 41.2634L365.313 58.0932C365.216 58.335 365.071 58.5527 364.878 58.7461C364.684 58.9154 364.394 59 364.007 59H361.323ZM383.146 59.3627C381.212 59.3627 379.579 59.0242 378.249 58.3471C376.944 57.6701 375.94 56.7149 375.239 55.4817C374.562 54.2485 374.175 52.8097 374.078 51.1654C374.054 50.7302 374.042 50.1982 374.042 49.5695C374.042 48.9408 374.054 48.4088 374.078 47.9736C374.175 46.3051 374.574 44.8663 375.275 43.6573C376.001 42.4241 377.016 41.4689 378.322 40.7919C379.652 40.1148 381.26 39.7763 383.146 39.7763C385.032 39.7763 386.628 40.1148 387.934 40.7919C389.264 41.4689 390.279 42.4241 390.981 43.6573C391.706 44.8663 392.117 46.3051 392.214 47.9736C392.238 48.4088 392.25 48.9408 392.25 49.5695C392.25 50.1982 392.238 50.7302 392.214 51.1654C392.117 52.8097 391.718 54.2485 391.017 55.4817C390.34 56.7149 389.336 57.6701 388.006 58.3471C386.701 59.0242 385.08 59.3627 383.146 59.3627ZM383.146 55.7719C384.428 55.7719 385.419 55.3729 386.12 54.5749C386.821 53.7528 387.208 52.5558 387.281 50.9841C387.305 50.6214 387.317 50.1498 387.317 49.5695C387.317 48.9892 387.305 48.5176 387.281 48.1549C387.208 46.6073 386.821 45.4225 386.12 44.6003C385.419 43.7782 384.428 43.3671 383.146 43.3671C381.864 43.3671 380.873 43.7782 380.172 44.6003C379.471 45.4225 379.084 46.6073 379.011 48.1549C378.987 48.5176 378.975 48.9892 378.975 49.5695C378.975 50.1498 378.987 50.6214 379.011 50.9841C379.084 52.5558 379.471 53.7528 380.172 54.5749C380.873 55.3729 381.864 55.7719 383.146 55.7719ZM404.611 59.3627C402.677 59.3627 401.045 59.0242 399.715 58.3471C398.409 57.6701 397.405 56.7149 396.704 55.4817C396.027 54.2485 395.64 52.8097 395.543 51.1654C395.519 50.7302 395.507 50.1982 395.507 49.5695C395.507 48.9408 395.519 48.4088 395.543 47.9736C395.64 46.3051 396.039 44.8663 396.74 43.6573C397.466 42.4241 398.481 41.4689 399.787 40.7919C401.117 40.1148 402.725 39.7763 404.611 39.7763C406.497 39.7763 408.093 40.1148 409.399 40.7919C410.729 41.4689 411.745 42.4241 412.446 43.6573C413.171 44.8663 413.582 46.3051 413.679 47.9736C413.703 48.4088 413.715 48.9408 413.715 49.5695C413.715 50.1982 413.703 50.7302 413.679 51.1654C413.582 52.8097 413.183 54.2485 412.482 55.4817C411.805 56.7149 410.801 57.6701 409.472 58.3471C408.166 59.0242 406.546 59.3627 404.611 59.3627ZM404.611 55.7719C405.893 55.7719 406.884 55.3729 407.585 54.5749C408.287 53.7528 408.674 52.5558 408.746 50.9841C408.77 50.6214 408.782 50.1498 408.782 49.5695C408.782 48.9892 408.77 48.5176 408.746 48.1549C408.674 46.6073 408.287 45.4225 407.585 44.6003C406.884 43.7782 405.893 43.3671 404.611 43.3671C403.33 43.3671 402.338 43.7782 401.637 44.6003C400.936 45.4225 400.549 46.6073 400.476 48.1549C400.452 48.5176 400.44 48.9892 400.44 49.5695C400.44 50.1498 400.452 50.6214 400.476 50.9841C400.549 52.5558 400.936 53.7528 401.637 54.5749C402.338 55.3729 403.33 55.7719 404.611 55.7719ZM418.604 59C418.363 59 418.157 58.9154 417.988 58.7461C417.819 58.5768 417.734 58.3713 417.734 58.1295V41.0458C417.734 40.7798 417.819 40.5622 417.988 40.3929C418.157 40.2236 418.363 40.139 418.604 40.139H421.542C421.784 40.139 421.99 40.2236 422.159 40.3929C422.352 40.5622 422.449 40.7798 422.449 41.0458V42.5329C423.005 41.7591 423.719 41.1667 424.589 40.7556C425.484 40.3445 426.512 40.139 427.672 40.139H429.159C429.425 40.139 429.631 40.2236 429.776 40.3929C429.945 40.5622 430.03 40.7677 430.03 41.0095V43.621C430.03 43.8628 429.945 44.0684 429.776 44.2376C429.631 44.4069 429.425 44.4915 429.159 44.4915H426.33C425.17 44.4915 424.263 44.818 423.61 45.4709C422.981 46.1237 422.667 47.0184 422.667 48.1549V58.1295C422.667 58.3713 422.582 58.5768 422.413 58.7461C422.244 58.9154 422.026 59 421.76 59H418.604ZM447.368 59.3627C446.111 59.3627 444.999 59.1572 444.031 58.7461C443.088 58.3108 442.302 57.7063 441.674 56.9325C441.045 56.1588 440.561 55.252 440.223 54.2122C439.884 53.1483 439.691 51.9876 439.643 50.7302C439.618 50.2949 439.606 49.908 439.606 49.5695C439.606 49.2068 439.618 48.8078 439.643 48.3725C439.691 47.1635 439.872 46.0391 440.187 44.9993C440.525 43.9596 441.009 43.0528 441.638 42.279C442.29 41.481 443.088 40.8644 444.031 40.4292C444.999 39.9939 446.111 39.7763 447.368 39.7763C448.674 39.7763 449.774 40.006 450.669 40.4654C451.588 40.9007 452.35 41.4689 452.954 42.1702V34.118C452.954 33.8762 453.027 33.6706 453.172 33.5014C453.341 33.3321 453.559 33.2475 453.825 33.2475H456.908C457.149 33.2475 457.355 33.3321 457.524 33.5014C457.694 33.6706 457.778 33.8762 457.778 34.118V58.1295C457.778 58.3713 457.694 58.5768 457.524 58.7461C457.355 58.9154 457.149 59 456.908 59H454.042C453.776 59 453.559 58.9154 453.389 58.7461C453.244 58.5768 453.172 58.3713 453.172 58.1295V56.7875C452.567 57.5371 451.793 58.1537 450.85 58.6373C449.932 59.1209 448.771 59.3627 447.368 59.3627ZM448.71 55.4817C449.726 55.4817 450.536 55.252 451.141 54.7925C451.745 54.3331 452.192 53.7528 452.483 53.0515C452.773 52.3261 452.93 51.5886 452.954 50.839C452.978 50.4037 452.99 49.9443 452.99 49.4607C452.99 48.9529 452.978 48.4814 452.954 48.0461C452.93 47.3207 452.761 46.6315 452.446 45.9786C452.132 45.3016 451.673 44.7454 451.068 44.3102C450.463 43.8749 449.678 43.6573 448.71 43.6573C447.695 43.6573 446.885 43.887 446.28 44.3464C445.7 44.7817 445.277 45.362 445.011 46.0875C444.745 46.8129 444.588 47.6109 444.539 48.4814C444.515 49.2068 444.515 49.9322 444.539 50.6576C444.588 51.5281 444.745 52.3261 445.011 53.0515C445.277 53.777 445.7 54.3694 446.28 54.8288C446.885 55.2641 447.695 55.4817 448.71 55.4817ZM470.737 59.3627C468.053 59.3627 465.925 58.5889 464.353 57.0414C462.782 55.4938 461.935 53.2933 461.814 50.44C461.79 50.1982 461.778 49.8959 461.778 49.5332C461.778 49.1463 461.79 48.8441 461.814 48.6264C461.911 46.8129 462.322 45.2411 463.048 43.9112C463.797 42.5812 464.825 41.5657 466.131 40.8644C467.437 40.139 468.972 39.7763 470.737 39.7763C472.696 39.7763 474.34 40.1874 475.67 41.0095C477 41.8075 478.004 42.9319 478.681 44.3827C479.358 45.8094 479.696 47.4658 479.696 49.3519V50.1136C479.696 50.3554 479.612 50.5609 479.442 50.7302C479.273 50.8994 479.055 50.9841 478.789 50.9841H466.747C466.747 50.9841 466.747 51.0203 466.747 51.0929C466.747 51.1654 466.747 51.2259 466.747 51.2742C466.772 52.1206 466.929 52.9064 467.219 53.6319C467.533 54.3331 467.981 54.9014 468.561 55.3366C469.165 55.7719 469.879 55.9895 470.701 55.9895C471.378 55.9895 471.946 55.8928 472.406 55.6993C472.865 55.4817 473.24 55.2399 473.53 54.9739C473.82 54.7079 474.026 54.4903 474.147 54.321C474.364 54.0308 474.534 53.8616 474.654 53.8132C474.8 53.7407 475.005 53.7044 475.271 53.7044H478.39C478.632 53.7044 478.826 53.777 478.971 53.922C479.14 54.0671 479.213 54.2485 479.188 54.4661C479.164 54.853 478.959 55.3245 478.572 55.8807C478.209 56.4368 477.677 56.9809 476.976 57.5129C476.275 58.0449 475.392 58.4922 474.328 58.8549C473.288 59.1934 472.091 59.3627 470.737 59.3627ZM466.747 47.9373H474.763V47.8285C474.763 46.8854 474.606 46.0633 474.292 45.362C473.977 44.6608 473.518 44.1046 472.913 43.6936C472.309 43.2825 471.584 43.077 470.737 43.077C469.891 43.077 469.165 43.2825 468.561 43.6936C467.956 44.1046 467.497 44.6608 467.183 45.362C466.892 46.0633 466.747 46.8854 466.747 47.8285V47.9373Z" fill="white"/>
<path d="M165.865 128C165.096 128 164.481 127.795 164.02 127.385C163.61 126.924 163.328 126.36 163.174 125.694L154.026 76.4174C154.026 76.2637 154.001 76.1355 153.949 76.033C153.949 75.9305 153.949 75.8537 153.949 75.8024C153.949 75.3412 154.103 74.9568 154.411 74.6493C154.769 74.3418 155.154 74.1881 155.564 74.1881H162.329C163.61 74.1881 164.327 74.7006 164.481 75.7256L170.862 110.55L177.78 88.0254C177.934 87.6154 178.19 87.2054 178.549 86.7954C178.959 86.3342 179.548 86.1036 180.317 86.1036H184.468C185.288 86.1036 185.878 86.3342 186.236 86.7954C186.595 87.2054 186.826 87.6154 186.928 88.0254L193.924 110.473L200.304 75.7256C200.458 74.7006 201.176 74.1881 202.457 74.1881H209.222C209.632 74.1881 209.991 74.3418 210.298 74.6493C210.606 74.9568 210.759 75.3412 210.759 75.8024C210.759 75.8537 210.759 75.9305 210.759 76.033C210.759 76.1355 210.734 76.2637 210.682 76.4174L201.534 125.694C201.432 126.36 201.15 126.924 200.689 127.385C200.228 127.795 199.613 128 198.844 128H193.693C192.925 128 192.31 127.795 191.848 127.385C191.438 126.975 191.156 126.539 191.003 126.078L182.393 100.402L173.783 126.078C173.578 126.539 173.27 126.975 172.86 127.385C172.45 127.795 171.835 128 171.015 128H165.865ZM223.438 128.769C220.773 128.769 218.364 128.256 216.211 127.231C214.059 126.155 212.342 124.746 211.061 123.003C209.831 121.209 209.216 119.211 209.216 117.007C209.216 113.42 210.651 110.575 213.521 108.474C216.442 106.321 220.286 104.886 225.052 104.169L235.584 102.632V101.017C235.584 98.8647 235.046 97.1991 233.969 96.0203C232.893 94.8416 231.048 94.2522 228.434 94.2522C226.589 94.2522 225.078 94.6366 223.899 95.4053C222.771 96.1228 221.926 97.0966 221.362 98.3266C220.952 98.9928 220.363 99.3259 219.594 99.3259H213.521C212.957 99.3259 212.521 99.1722 212.214 98.8647C211.958 98.5572 211.83 98.1472 211.83 97.6347C211.881 96.8147 212.214 95.8153 212.829 94.6366C213.444 93.4579 214.418 92.3304 215.75 91.2541C217.083 90.1267 218.799 89.1785 220.901 88.4098C223.002 87.6411 225.539 87.2567 228.511 87.2567C231.74 87.2567 234.456 87.6667 236.66 88.4867C238.915 89.2554 240.709 90.306 242.041 91.6385C243.374 92.971 244.347 94.5341 244.962 96.3278C245.577 98.1216 245.885 100.018 245.885 102.017V126.155C245.885 126.668 245.705 127.103 245.347 127.462C244.988 127.821 244.552 128 244.04 128H237.813C237.249 128 236.788 127.821 236.429 127.462C236.122 127.103 235.968 126.668 235.968 126.155V123.157C235.302 124.131 234.405 125.053 233.277 125.924C232.15 126.744 230.766 127.436 229.126 128C227.538 128.512 225.641 128.769 223.438 128.769ZM226.051 121.466C227.845 121.466 229.459 121.081 230.894 120.313C232.381 119.544 233.534 118.365 234.354 116.776C235.225 115.136 235.661 113.086 235.661 110.626V109.012L227.973 110.242C224.949 110.703 222.694 111.446 221.208 112.471C219.722 113.496 218.979 114.752 218.979 116.238C218.979 117.366 219.312 118.339 219.978 119.159C220.696 119.928 221.593 120.518 222.669 120.928C223.745 121.286 224.873 121.466 226.051 121.466ZM267.662 128.769C263.972 128.769 260.718 128.077 257.899 126.693C255.132 125.309 252.954 123.311 251.365 120.697C249.828 118.032 248.982 114.829 248.828 111.088C248.777 110.319 248.751 109.32 248.751 108.09C248.751 106.808 248.777 105.758 248.828 104.938C248.982 101.197 249.828 98.0191 251.365 95.4053C252.954 92.7404 255.132 90.716 257.899 89.3323C260.718 87.9485 263.972 87.2567 267.662 87.2567C270.942 87.2567 273.735 87.7179 276.042 88.6404C278.348 89.5629 280.244 90.716 281.73 92.0998C283.217 93.4835 284.319 94.9441 285.036 96.4816C285.805 97.9678 286.215 99.3259 286.266 100.556C286.317 101.12 286.138 101.581 285.728 101.94C285.369 102.247 284.934 102.401 284.421 102.401H277.656C277.144 102.401 276.734 102.273 276.426 102.017C276.17 101.76 275.914 101.376 275.657 100.863C274.889 98.8134 273.864 97.3784 272.582 96.5585C271.352 95.6872 269.764 95.2516 267.816 95.2516C265.254 95.2516 263.204 96.0716 261.666 97.7116C260.18 99.3003 259.386 101.837 259.283 105.322C259.181 107.27 259.181 109.063 259.283 110.703C259.386 114.24 260.18 116.802 261.666 118.391C263.204 119.979 265.254 120.774 267.816 120.774C269.815 120.774 271.429 120.364 272.659 119.544C273.889 118.673 274.889 117.212 275.657 115.162C275.914 114.65 276.17 114.265 276.426 114.009C276.734 113.753 277.144 113.625 277.656 113.625H284.421C284.934 113.625 285.369 113.804 285.728 114.163C286.138 114.47 286.317 114.906 286.266 115.47C286.215 116.392 285.958 117.443 285.497 118.621C285.087 119.749 284.395 120.928 283.422 122.158C282.499 123.336 281.32 124.438 279.885 125.463C278.45 126.437 276.708 127.231 274.658 127.846C272.659 128.461 270.327 128.769 267.662 128.769ZM290.824 128C290.311 128 289.876 127.821 289.517 127.462C289.158 127.103 288.979 126.668 288.979 126.155V75.2643C288.979 74.7518 289.158 74.3162 289.517 73.9574C289.876 73.5987 290.311 73.4193 290.824 73.4193H297.666C298.229 73.4193 298.665 73.5987 298.972 73.9574C299.331 74.3162 299.511 74.7518 299.511 75.2643V92.7916C300.894 91.1516 302.586 89.8192 304.584 88.7942C306.583 87.7692 309.043 87.2567 311.964 87.2567C315.09 87.2567 317.807 87.9742 320.113 89.4092C322.47 90.7929 324.29 92.766 325.571 95.3285C326.852 97.8909 327.493 100.966 327.493 104.553V126.155C327.493 126.668 327.313 127.103 326.955 127.462C326.596 127.821 326.16 128 325.648 128H318.729C318.217 128 317.781 127.821 317.422 127.462C317.064 127.103 316.884 126.668 316.884 126.155V105.015C316.884 102.042 316.141 99.7103 314.655 98.0191C313.22 96.3278 311.119 95.4822 308.351 95.4822C305.686 95.4822 303.534 96.3278 301.894 98.0191C300.305 99.7103 299.511 102.042 299.511 105.015V126.155C299.511 126.668 299.331 127.103 298.972 127.462C298.665 127.821 298.229 128 297.666 128H290.824ZM349.482 128C346.407 128 343.819 127.462 341.718 126.386C339.617 125.309 338.054 123.721 337.029 121.619C336.004 119.467 335.491 116.802 335.491 113.625V96.1741H329.418C328.906 96.1741 328.47 95.9947 328.111 95.636C327.753 95.2772 327.573 94.8416 327.573 94.3291V89.8704C327.573 89.3579 327.753 88.9223 328.111 88.5635C328.47 88.2048 328.906 88.0254 329.418 88.0254H335.491V75.2643C335.491 74.7518 335.645 74.3162 335.953 73.9574C336.311 73.5987 336.773 73.4193 337.336 73.4193H343.563C344.076 73.4193 344.511 73.5987 344.87 73.9574C345.229 74.3162 345.408 74.7518 345.408 75.2643V88.0254H355.017C355.53 88.0254 355.965 88.2048 356.324 88.5635C356.683 88.9223 356.862 89.3579 356.862 89.8704V94.3291C356.862 94.8416 356.683 95.2772 356.324 95.636C355.965 95.9947 355.53 96.1741 355.017 96.1741H345.408V112.856C345.408 114.957 345.767 116.597 346.484 117.776C347.253 118.954 348.56 119.544 350.405 119.544H355.709C356.222 119.544 356.657 119.723 357.016 120.082C357.375 120.441 357.554 120.876 357.554 121.389V126.155C357.554 126.668 357.375 127.103 357.016 127.462C356.657 127.821 356.222 128 355.709 128H349.482ZM360.914 128C360.402 128 359.966 127.821 359.608 127.462C359.249 127.103 359.069 126.668 359.069 126.155V75.2643C359.069 74.7518 359.249 74.3162 359.608 73.9574C359.966 73.5987 360.402 73.4193 360.914 73.4193H367.295C367.807 73.4193 368.243 73.5987 368.602 73.9574C368.961 74.3162 369.14 74.7518 369.14 75.2643V126.155C369.14 126.668 368.961 127.103 368.602 127.462C368.243 127.821 367.807 128 367.295 128H360.914ZM375.801 128C375.288 128 374.853 127.821 374.494 127.462C374.135 127.103 373.956 126.668 373.956 126.155V89.8704C373.956 89.3579 374.135 88.9223 374.494 88.5635C374.853 88.2048 375.288 88.0254 375.801 88.0254H382.182C382.745 88.0254 383.181 88.2048 383.488 88.5635C383.847 88.9223 384.027 89.3579 384.027 89.8704V126.155C384.027 126.668 383.847 127.103 383.488 127.462C383.181 127.821 382.745 128 382.182 128H375.801ZM375.493 81.4142C374.93 81.4142 374.468 81.2605 374.11 80.953C373.802 80.5943 373.649 80.133 373.649 79.5693V74.0343C373.649 73.5218 373.802 73.0862 374.11 72.7275C374.468 72.3687 374.93 72.1893 375.493 72.1893H382.489C383.053 72.1893 383.514 72.3687 383.873 72.7275C384.232 73.0862 384.411 73.5218 384.411 74.0343V79.5693C384.411 80.133 384.232 80.5943 383.873 80.953C383.514 81.2605 383.053 81.4142 382.489 81.4142H375.493ZM382.233 142.606C381.721 142.606 381.285 142.427 380.926 142.068C380.568 141.709 380.388 141.274 380.388 140.761V136.302C380.388 135.79 380.568 135.354 380.926 134.996C381.285 134.637 381.721 134.457 382.233 134.457H384.232C385.821 134.457 386.999 134.176 387.768 133.612C388.537 133.048 389.049 132.254 389.306 131.229C389.562 130.255 389.69 129.153 389.69 127.923V89.8704C389.69 89.3579 389.869 88.9223 390.228 88.5635C390.587 88.2048 391.022 88.0254 391.535 88.0254H398.223C398.736 88.0254 399.171 88.2048 399.53 88.5635C399.889 88.9223 400.068 89.3579 400.068 89.8704V128.077C400.068 131.101 399.504 133.689 398.377 135.841C397.301 137.994 395.661 139.659 393.457 140.838C391.304 142.017 388.537 142.606 385.154 142.606H382.233ZM391.227 81.4142C390.664 81.4142 390.202 81.2605 389.844 80.953C389.485 80.5943 389.306 80.133 389.306 79.5693V74.0343C389.306 73.5218 389.485 73.0862 389.844 72.7275C390.202 72.3687 390.664 72.1893 391.227 72.1893H398.454C399.017 72.1893 399.479 72.3687 399.837 72.7275C400.196 73.0862 400.375 73.5218 400.375 74.0343V79.5693C400.375 80.133 400.196 80.5943 399.837 80.953C399.479 81.2605 399.017 81.4142 398.454 81.4142H391.227ZM420.078 128.769C417.003 128.769 414.364 128.41 412.16 127.693C410.008 126.975 408.239 126.078 406.856 125.002C405.472 123.926 404.447 122.849 403.781 121.773C403.115 120.697 402.756 119.8 402.705 119.083C402.653 118.519 402.807 118.083 403.166 117.776C403.576 117.417 404.011 117.238 404.473 117.238H410.546C410.751 117.238 410.93 117.263 411.084 117.314C411.238 117.366 411.443 117.519 411.699 117.776C412.365 118.339 413.057 118.929 413.774 119.544C414.543 120.159 415.44 120.697 416.465 121.158C417.49 121.568 418.771 121.773 420.309 121.773C422.307 121.773 423.973 121.389 425.306 120.62C426.689 119.8 427.381 118.647 427.381 117.161C427.381 116.085 427.074 115.213 426.459 114.547C425.895 113.881 424.819 113.291 423.23 112.779C421.641 112.215 419.386 111.626 416.465 111.011C413.595 110.345 411.212 109.499 409.316 108.474C407.419 107.449 406.01 106.168 405.088 104.63C404.165 103.093 403.704 101.299 403.704 99.2491C403.704 97.2503 404.293 95.3541 405.472 93.5604C406.702 91.7154 408.496 90.2035 410.853 89.0248C413.262 87.846 416.234 87.2567 419.771 87.2567C422.538 87.2567 424.947 87.6154 426.997 88.3329C429.047 88.9992 430.738 89.8448 432.07 90.8698C433.454 91.8948 434.505 92.9454 435.222 94.0216C435.94 95.0466 436.324 95.9435 436.375 96.7122C436.427 97.2759 436.273 97.7372 435.914 98.0959C435.555 98.4034 435.145 98.5572 434.684 98.5572H428.996C428.739 98.5572 428.509 98.5059 428.304 98.4034C428.099 98.3009 427.894 98.1728 427.689 98.0191C427.125 97.5066 426.51 96.9685 425.844 96.4047C425.177 95.841 424.357 95.3541 423.384 94.9441C422.461 94.4829 421.231 94.2522 419.694 94.2522C417.746 94.2522 416.26 94.6879 415.235 95.5591C414.21 96.3791 413.698 97.4297 413.698 98.7109C413.698 99.5822 413.928 100.351 414.389 101.017C414.902 101.632 415.901 102.222 417.388 102.785C418.874 103.349 421.129 103.938 424.152 104.553C427.586 105.168 430.302 106.091 432.301 107.321C434.351 108.5 435.786 109.883 436.606 111.472C437.477 113.01 437.913 114.726 437.913 116.623C437.913 118.929 437.221 121.004 435.837 122.849C434.505 124.694 432.506 126.155 429.841 127.231C427.227 128.256 423.973 128.769 420.078 128.769ZM458.382 128C455.308 128 452.719 127.462 450.618 126.386C448.517 125.309 446.954 123.721 445.929 121.619C444.904 119.467 444.391 116.802 444.391 113.625V96.1741H438.318C437.806 96.1741 437.37 95.9947 437.011 95.636C436.653 95.2772 436.473 94.8416 436.473 94.3291V89.8704C436.473 89.3579 436.653 88.9223 437.011 88.5635C437.37 88.2048 437.806 88.0254 438.318 88.0254H444.391V75.2643C444.391 74.7518 444.545 74.3162 444.853 73.9574C445.211 73.5987 445.673 73.4193 446.236 73.4193H452.463C452.976 73.4193 453.411 73.5987 453.77 73.9574C454.129 74.3162 454.308 74.7518 454.308 75.2643V88.0254H463.917C464.43 88.0254 464.866 88.2048 465.224 88.5635C465.583 88.9223 465.762 89.3579 465.762 89.8704V94.3291C465.762 94.8416 465.583 95.2772 465.224 95.636C464.866 95.9947 464.43 96.1741 463.917 96.1741H454.308V112.856C454.308 114.957 454.667 116.597 455.384 117.776C456.153 118.954 457.46 119.544 459.305 119.544H464.609C465.122 119.544 465.557 119.723 465.916 120.082C466.275 120.441 466.454 120.876 466.454 121.389V126.155C466.454 126.668 466.275 127.103 465.916 127.462C465.557 127.821 465.122 128 464.609 128H458.382Z" fill="white"/>
</svg>
